<svg width="730" height="350" viewBox="0 0 730 350" fill="none" xmlns="http://www.w3.org/2000/svg">
<rect width="730" height="350" rx="8" fill="#F3F3F3"/>
<rect x="305" y="115" width="120" height="120" rx="6" fill="#F3F3F3"/>
<path fill-rule="evenodd" clip-rule="evenodd" d="M343.22 198.516L374.757 166.979C375.914 165.822 377.79 165.822 378.947 166.979L388.704 176.736V154.259C388.704 152.623 387.377 151.296 385.741 151.296H344.259C342.623 151.296 341.296 152.623 341.296 154.259V195.741C341.296 197.011 342.096 198.095 343.22 198.516ZM351.412 198.704H385.741C387.377 198.704 388.704 197.377 388.704 195.741V185.116L376.852 173.264L351.412 198.704ZM344.259 145.37H385.741C390.65 145.37 394.63 149.35 394.63 154.259V195.741C394.63 200.65 390.65 204.63 385.741 204.63H344.259C339.35 204.63 335.37 200.65 335.37 195.741V154.259C335.37 149.35 339.35 145.37 344.259 145.37ZM354.63 172.037C350.539 172.037 347.222 168.721 347.222 164.63C347.222 160.539 350.539 157.222 354.63 157.222C358.721 157.222 362.037 160.539 362.037 164.63C362.037 168.721 358.721 172.037 354.63 172.037ZM354.63 166.111C355.448 166.111 356.111 165.448 356.111 164.63C356.111 163.811 355.448 163.148 354.63 163.148C353.811 163.148 353.148 163.811 353.148 164.63C353.148 165.448 353.811 166.111 354.63 166.111Z" fill="#B9B9B9"/>
</svg>
